# xmcd
#
# Track frame offsets:
#	150
#	13737
#	29667
#	44155
#	60267
#	70310
#	76390
#	89862
#	113090
#	124457
#	135052
#	148437
#	160942
#	174715
#
# Disc length: 2535 seconds
#
# Revision: 2
# Processed by: cddbd v1.4PL0 Copyright (c) Steve Scherf et al.
# Submitted via: EZCDDA 4.3.2
#
DISCID=d009e50e
DTITLE=Marilyn Monroe - The Legend Sings
DYEAR=1900
DGENRE=
TTITLE0=I Wanna Be Loved By You
TTITLE1=Diamonds Are A Girl's Best Friemd
TTITLE2=Do It Again
TTITLE3=Lazy
TTITLE4=The River Of No Return
TTITLE5=Some Like It Hot
TTITLE6=When I Fall In Love
TTITLE7=My Heart Belongs To Daddy
TTITLE8=I'm Through With Love
TTITLE9=A Fine Romance
TTITLE10=Kiss
TTITLE11=She Acts Like A Woman Should
TTITLE12=You'd BeSurprised
TTITLE13=Bye Bye Baby
EXTD=
EXTT0=
EXTT1=
EXTT2=
EXTT3=
EXTT4=
EXTT5=
EXTT6=
EXTT7=
EXTT8=
EXTT9=
EXTT10=
EXTT11=
EXTT12=
EXTT13=
PLAYORDER=
